ffmpeg version 6.1.1-3ubuntu5 Copyright (c) 2000-2023 the FFmpeg developers
  built with gcc 13 (Ubuntu 13.2.0-23ubuntu3)
  configuration: --prefix=/usr --extra-version=3ubuntu5 --toolchain=hardened --libdir=/usr/lib/x86_64-linux-gnu --incdir=/usr/include/x86_64-linux-gnu --arch=amd64 --enable-gpl --disable-stripping --disable-omx --enable-gnutls --enable-libaom --enable-libass --enable-libbs2b --enable-libcaca --enable-libcdio --enable-libcodec2 --enable-libdav1d --enable-libflite --enable-libfontconfig --enable-libfreetype --enable-libfribidi --enable-libglslang --enable-libgme --enable-libgsm --enable-libharfbuzz --enable-libmp3lame --enable-libmysofa --enable-libopenjpeg --enable-libopenmpt --enable-libopus --enable-librubberband --enable-libshine --enable-libsnappy --enable-libsoxr --enable-libspeex --enable-libtheora --enable-libtwolame --enable-libvidstab --enable-libvorbis --enable-libvpx --enable-libwebp --enable-libx265 --enable-libxml2 --enable-libxvid --enable-libzimg --enable-openal --enable-opencl --enable-opengl --disable-sndio --enable-libvpl --disable-libmfx --enable-libdc1394 --enable-libdrm --enable-libiec61883 --enable-chromaprint --enable-frei0r --enable-ladspa --enable-libbluray --enable-libjack --enable-libpulse --enable-librabbitmq --enable-librist --enable-libsrt --enable-libssh --enable-libsvtav1 --enable-libx264 --enable-libzmq --enable-libzvbi --enable-lv2 --enable-sdl2 --enable-libplacebo --enable-librav1e --enable-pocketsphinx --enable-librsvg --enable-libjxl --enable-shared
  libavutil      58. 29.100 / 58. 29.100
  libavcodec     60. 31.102 / 60. 31.102
  libavformat    60. 16.100 / 60. 16.100
  libavdevice    60.  3.100 / 60.  3.100
  libavfilter     9. 12.100 /  9. 12.100
  libswscale      7.  5.100 /  7.  5.100
  libswresample   4. 12.100 /  4. 12.100
  libpostproc    57.  3.100 / 57.  3.100
-vsync is deprecated. Use -fps_mode
Passing a number to -vsync is deprecated, use a string argument as described in the manual.
Input #0, rtsp, from 'rtsp://admin:1234Qwer@192.168.21.10:554/Streaming/Channels/101':
  Metadata:
    title           : Media Presentation
  Duration: N/A, start: 1744299080.965289, bitrate: N/A
  Stream #0:0: Video: hevc (Main), yuvj420p(pc, bt709), 1920x1080, 50 tbr, 90k tbn
Stream mapping:
  Stream #0:0 -> #0:0 (hevc (native) -> h264 (libx264))
Press [q] to stop, [?] for help
[swscaler @ 0x59f5ac29c100] deprecated pixel format used, make sure you did set range correctly
[swscaler @ 0x59f5ac2a93c0] deprecated pixel format used, make sure you did set range correctly
[swscaler @ 0x59f5ac29c100] deprecated pixel format used, make sure you did set range correctly
    Last message repeated 1 times
[libx264 @ 0x59f5ab0d7a80] frame MB size (120x68) > level limit (1620)
[libx264 @ 0x59f5ab0d7a80] DPB size (1 frames, 8160 mbs) > level limit (0 frames, 8100 mbs)
[libx264 @ 0x59f5ab0d7a80] MB rate (244800) > level limit (40500)
[libx264 @ 0x59f5ab0d7a80] using cpu capabilities: MMX2 SSE2Fast SSSE3 SSE4.2 AVX FMA3 BMI2 AVX2
[libx264 @ 0x59f5ab0d7a80] profile Constrained Baseline, level 3.0, 4:2:0, 8-bit
[libx264 @ 0x59f5ab0d7a80] 264 - core 164 r3108 31e19f9 - H.264/MPEG-4 AVC codec - Copyleft 2003-2023 - http://www.videolan.org/x264.html - options: cabac=0 ref=1 deblock=0:0:0 analyse=0:0 me=dia subme=0 psy=1 psy_rd=1.00:0.00 mixed_ref=0 me_range=16 chroma_me=1 trellis=0 8x8dct=0 cqm=0 deadzone=21,11 fast_pskip=1 chroma_qp_offset=0 threads=12 lookahead_threads=12 sliced_threads=1 slices=12 nr=0 decimate=1 interlaced=0 bluray_compat=0 constrained_intra=0 bframes=0 weightp=0 keyint=30 keyint_min=16 scenecut=0 intra_refresh=0 rc_lookahead=0 rc=abr mbtree=0 bitrate=2000 ratetol=1.0 qcomp=0.60 qpmin=0 qpmax=69 qpstep=4 vbv_maxrate=2500 vbv_bufsize=3000 nal_hrd=none filler=0 ip_ratio=1.40 aq=0
Output #0, hls, to 'data/hls/stream3/stream3.m3u8':
  Metadata:
    title           : Media Presentation
    encoder         : Lavf60.16.100
  Stream #0:0: Video: h264, yuv420p(tv, bt709, progressive), 1920x1080, q=2-31, 2000 kb/s, 30 fps, 90k tbn
    Metadata:
      encoder         : Lavc60.31.102 libx264
    Side data:
      cpb: bitrate max/min/avg: 2500000/0/2000000 buffer size: 3000000 vbv_delay: N/A
frame=    1 fps=0.0 q=40.0 size=N/A time=00:00:00.00 bitrate=N/A speed=   0x    frame=   28 fps=0.0 q=34.0 size=N/A time=00:00:00.93 bitrate=N/A dup=4 drop=0 speed=1.65x    frame=   43 fps= 40 q=33.0 size=N/A time=00:00:01.43 bitrate=N/A dup=6 drop=0 speed=1.32x    frame=   59 fps= 37 q=42.0 size=N/A time=00:00:01.93 bitrate=N/A dup=8 drop=0 speed= 1.2x    [hls @ 0x59f5ab0d7080] Opening 'data/hls/stream3/stream3_segment_000.ts' for writing
[hls @ 0x59f5ab0d7080] Opening 'data/hls/stream3/stream3.m3u8.tmp' for writing
frame=   74 fps= 35 q=35.0 size=N/A time=00:00:02.46 bitrate=N/A dup=11 drop=0 speed=1.17x    frame=   89 fps= 34 q=34.0 size=N/A time=00:00:02.93 bitrate=N/A dup=13 drop=0 speed=1.12x    frame=  105 fps= 33 q=35.0 size=N/A time=00:00:03.46 bitrate=N/A dup=16 drop=0 speed=1.11x    frame=  120 fps= 33 q=33.0 size=N/A time=00:00:04.00 bitrate=N/A dup=19 drop=0 speed=1.09x    [hls @ 0x59f5ab0d7080] Opening 'data/hls/stream3/stream3_segment_001.ts' for writing
[hls @ 0x59f5ab0d7080] Opening 'data/hls/stream3/stream3.m3u8.tmp' for writing
frame=  135 fps= 32 q=34.0 size=N/A time=00:00:04.50 bitrate=N/A dup=21 drop=0 speed=1.07x    frame=  151 fps= 32 q=40.0 size=N/A time=00:00:05.03 bitrate=N/A dup=24 drop=0 speed=1.07x    frame=  167 fps= 32 q=42.0 size=N/A time=00:00:05.53 bitrate=N/A dup=26 drop=0 speed=1.06x    [hls @ 0x59f5ab0d7080] Opening 'data/hls/stream3/stream3_segment_002.ts' for writing
[hls @ 0x59f5ab0d7080] Opening 'data/hls/stream3/stream3.m3u8.tmp' for writing
frame=  182 fps= 32 q=44.0 size=N/A time=00:00:06.03 bitrate=N/A dup=29 drop=0 speed=1.06x    frame=  198 fps= 32 q=34.0 size=N/A time=00:00:06.60 bitrate=N/A dup=32 drop=0 speed=1.05x    frame=  214 fps= 32 q=40.0 size=N/A time=00:00:07.10 bitrate=N/A dup=34 drop=0 speed=1.05x    frame=  229 fps= 31 q=38.0 size=N/A time=00:00:07.63 bitrate=N/A dup=37 drop=0 speed=1.04x    [hls @ 0x59f5ab0d7080] Opening 'data/hls/stream3/stream3_segment_003.ts' for writing
[hls @ 0x59f5ab0d7080] Opening 'data/hls/stream3/stream3.m3u8.tmp' for writing
frame=  245 fps= 31 q=38.0 size=N/A time=00:00:08.16 bitrate=N/A dup=40 drop=0 speed=1.04x    frame=  260 fps= 31 q=35.0 size=N/A time=00:00:08.66 bitrate=N/A dup=42 drop=0 speed=1.04x    frame=  276 fps= 31 q=40.0 size=N/A time=00:00:09.20 bitrate=N/A dup=45 drop=0 speed=1.04x    frame=  292 fps= 31 q=35.0 size=N/A time=00:00:09.73 bitrate=N/A dup=48 drop=0 speed=1.04x    [hls @ 0x59f5ab0d7080] Opening 'data/hls/stream3/stream3_segment_004.ts' for writing
[hls @ 0x59f5ab0d7080] Opening 'data/hls/stream3/stream3.m3u8.tmp' for writing
frame=  310 fps= 31 q=33.0 size=N/A time=00:00:10.30 bitrate=N/A dup=51 drop=0 speed=1.03x    frame=  324 fps= 31 q=39.0 size=N/A time=00:00:10.80 bitrate=N/A dup=53 drop=0 speed=1.03x    frame=  341 fps= 31 q=36.0 size=N/A time=00:00:11.33 bitrate=N/A dup=56 drop=0 speed=1.03x    frame=  355 fps= 31 q=34.0 size=N/A time=00:00:11.83 bitrate=N/A dup=58 drop=0 speed=1.03x    [hls @ 0x59f5ab0d7080] Opening 'data/hls/stream3/stream3_segment_005.ts' for writing
[hls @ 0x59f5ab0d7080] Opening 'data/hls/stream3/stream3.m3u8.tmp' for writing
frame=  371 fps= 31 q=41.0 size=N/A time=00:00:12.36 bitrate=N/A dup=61 drop=0 speed=1.03x    frame=  388 fps= 31 q=35.0 size=N/A time=00:00:12.93 bitrate=N/A dup=64 drop=0 speed=1.03x    frame=  404 fps= 31 q=33.0 size=N/A time=00:00:13.46 bitrate=N/A dup=67 drop=0 speed=1.03x    frame=  419 fps= 31 q=41.0 size=N/A time=00:00:13.96 bitrate=N/A dup=69 drop=0 speed=1.02x    [hls @ 0x59f5ab0d7080] Opening 'data/hls/stream3/stream3_segment_006.ts' for writing
[hls @ 0x59f5ab0d7080] Opening 'data/hls/stream3/stream3.m3u8.tmp' for writing
frame=  435 fps= 31 q=35.0 size=N/A time=00:00:14.50 bitrate=N/A dup=72 drop=0 speed=1.02x    frame=  451 fps= 31 q=43.0 size=N/A time=00:00:15.03 bitrate=N/A dup=75 drop=0 speed=1.02x    frame=  467 fps= 31 q=35.0 size=N/A time=00:00:15.53 bitrate=N/A dup=77 drop=0 speed=1.02x    [hls @ 0x59f5ab0d7080] Opening 'data/hls/stream3/stream3_segment_007.ts' for writing
[hls @ 0x59f5ab0d7080] Opening 'data/hls/stream3/stream3.m3u8.tmp' for writing
frame=  482 fps= 31 q=41.0 size=N/A time=00:00:16.06 bitrate=N/A dup=80 drop=0 speed=1.02x    frame=  499 fps= 31 q=34.0 size=N/A time=00:00:16.60 bitrate=N/A dup=83 drop=0 speed=1.02x    frame=  514 fps= 31 q=41.0 size=N/A time=00:00:17.10 bitrate=N/A dup=85 drop=0 speed=1.02x    frame=  529 fps= 31 q=38.0 size=N/A time=00:00:17.63 bitrate=N/A dup=88 drop=0 speed=1.02x    [hls @ 0x59f5ab0d7080] Opening 'data/hls/stream3/stream3_segment_008.ts' for writing
[hls @ 0x59f5ab0d7080] Opening 'data/hls/stream3/stream3.m3u8.tmp' for writing
frame=  544 fps= 31 q=38.0 size=N/A time=00:00:18.13 bitrate=N/A dup=90 drop=0 speed=1.02x    frame=  561 fps= 31 q=34.0 size=N/A time=00:00:18.66 bitrate=N/A dup=93 drop=0 speed=1.02x    frame=  577 fps= 31 q=39.0 size=N/A time=00:00:19.20 bitrate=N/A dup=96 drop=0 speed=1.02x    frame=  591 fps= 31 q=36.0 size=N/A time=00:00:19.70 bitrate=N/A dup=98 drop=0 speed=1.02x    [hls @ 0x59f5ab0d7080] Opening 'data/hls/stream3/stream3_segment_009.ts' for writing
[hls @ 0x59f5ab0d7080] Opening 'data/hls/stream3/stream3.m3u8.tmp' for writing
frame=  608 fps= 31 q=36.0 size=N/A time=00:00:20.23 bitrate=N/A dup=101 drop=0 speed=1.02x    frame=  623 fps= 31 q=36.0 size=N/A time=00:00:20.73 bitrate=N/A dup=103 drop=0 speed=1.02x    frame=  638 fps= 30 q=37.0 size=N/A time=00:00:21.26 bitrate=N/A dup=106 drop=0 speed=1.01x    frame=  655 fps= 31 q=36.0 size=N/A time=00:00:21.80 bitrate=N/A dup=109 drop=0 speed=1.02x    [hls @ 0x59f5ab0d7080] Opening 'data/hls/stream3/stream3_segment_010.ts' for writing
[hls @ 0x59f5ab0d7080] Opening 'data/hls/stream3/stream3.m3u8.tmp' for writing
frame=  671 fps= 31 q=35.0 size=N/A time=00:00:22.33 bitrate=N/A dup=112 drop=0 speed=1.02x    frame=  685 fps= 30 q=40.0 size=N/A time=00:00:22.83 bitrate=N/A dup=114 drop=0 speed=1.01x    frame=  702 fps= 30 q=35.0 size=N/A time=00:00:23.36 bitrate=N/A dup=117 drop=0 speed=1.01x    frame=  716 fps= 30 q=38.0 size=N/A time=00:00:23.86 bitrate=N/A dup=119 drop=0 speed=1.01x    [hls @ 0x59f5ab0d7080] Opening 'data/hls/stream3/stream3_segment_011.ts' for writing
[hls @ 0x59f5ab0d7080] Opening 'data/hls/stream3/stream3.m3u8.tmp' for writing
frame=  733 fps= 30 q=42.0 size=N/A time=00:00:24.40 bitrate=N/A dup=122 drop=0 speed=1.01x    frame=  748 fps= 30 q=37.0 size=N/A time=00:00:24.90 bitrate=N/A dup=124 drop=0 speed=1.01x    frame=  765 fps= 30 q=34.0 size=N/A time=00:00:25.46 bitrate=N/A dup=128 drop=0 speed=1.01x    frame=  779 fps= 30 q=37.0 size=N/A time=00:00:25.96 bitrate=N/A dup=130 drop=0 speed=1.01x    [hls @ 0x59f5ab0d7080] Opening 'data/hls/stream3/stream3_segment_012.ts' for writing
[hls @ 0x59f5ab0d7080] Opening 'data/hls/stream3/stream3.m3u8.tmp' for writing
frame=  796 fps= 30 q=37.0 size=N/A time=00:00:26.50 bitrate=N/A dup=133 drop=0 speed=1.01x    frame=  809 fps= 30 q=39.0 size=N/A time=00:00:26.96 bitrate=N/A dup=135 drop=0 speed=1.01x    frame=  827 fps= 30 q=36.0 size=N/A time=00:00:27.53 bitrate=N/A dup=138 drop=0 speed=1.01x    [hls @ 0x59f5ab0d7080] Opening 'data/hls/stream3/stream3_segment_013.ts' for writing
[hls @ 0x59f5ab0d7080] Opening 'data/hls/stream3/stream3.m3u8.tmp' for writing
frame=  843 fps= 30 q=41.0 size=N/A time=00:00:28.06 bitrate=N/A dup=141 drop=0 speed=1.01x    frame=  858 fps= 30 q=36.0 size=N/A time=00:00:28.56 bitrate=N/A dup=143 drop=0 speed=1.01x    frame=  874 fps= 30 q=39.0 size=N/A time=00:00:29.10 bitrate=N/A dup=146 drop=0 speed=1.01x    frame=  889 fps= 30 q=40.0 size=N/A time=00:00:29.63 bitrate=N/A dup=149 drop=0 speed=1.01x    [hls @ 0x59f5ab0d7080] Opening 'data/hls/stream3/stream3_segment_014.ts' for writing
[hls @ 0x59f5ab0d7080] Opening 'data/hls/stream3/stream3.m3u8.tmp' for writing
frame=  904 fps= 30 q=38.0 size=N/A time=00:00:30.13 bitrate=N/A dup=151 drop=0 speed=1.01x    frame=  920 fps= 30 q=37.0 size=N/A time=00:00:30.66 bitrate=N/A dup=154 drop=0 speed=1.01x    frame=  935 fps= 30 q=40.0 size=N/A time=00:00:31.16 bitrate=N/A dup=156 drop=0 speed=1.01x    frame=  951 fps= 30 q=39.0 size=N/A time=00:00:31.70 bitrate=N/A dup=159 drop=0 speed=1.01x    [hls @ 0x59f5ab0d7080] Opening 'data/hls/stream3/stream3_segment_015.ts' for writing
[hls @ 0x59f5ab0d7080] Opening 'data/hls/stream3/stream3.m3u8.tmp' for writing
frame=  968 fps= 30 q=37.0 size=N/A time=00:00:32.23 bitrate=N/A dup=162 drop=0 speed=1.01x    frame=  983 fps= 30 q=37.0 size=N/A time=00:00:32.73 bitrate=N/A dup=164 drop=0 speed=1.01x    frame=  998 fps= 30 q=40.0 size=N/A time=00:00:33.26 bitrate=N/A dup=167 drop=0 speed=1.01x    frame= 1014 fps= 30 q=37.0 size=N/A time=00:00:33.76 bitrate=N/A dup=169 drop=0 speed=1.01x    [hls @ 0x59f5ab0d7080] Opening 'data/hls/stream3/stream3_segment_016.ts' for writing
[hls @ 0x59f5ab0d7080] Opening 'data/hls/stream3/stream3.m3u8.tmp' for writing
frame= 1030 fps= 30 q=35.0 size=N/A time=00:00:34.30 bitrate=N/A dup=172 drop=0 speed=1.01x    frame= 1043 fps= 30 q=35.0 size=N/A time=00:00:34.76 bitrate=N/A dup=174 drop=0 speed=1.01x    frame= 1059 fps= 30 q=38.0 size=N/A time=00:00:35.30 bitrate=N/A dup=177 drop=0 speed=1.01x    frame= 1076 fps= 30 q=35.0 size=N/A time=00:00:35.83 bitrate=N/A dup=180 drop=0 speed=1.01x    [hls @ 0x59f5ab0d7080] Opening 'data/hls/stream3/stream3_segment_017.ts' for writing
[hls @ 0x59f5ab0d7080] Opening 'data/hls/stream3/stream3.m3u8.tmp' for writing
frame= 1091 fps= 30 q=36.0 size=N/A time=00:00:36.36 bitrate=N/A dup=183 drop=0 speed=1.01x    frame= 1106 fps= 30 q=40.0 size=N/A time=00:00:36.86 bitrate=N/A dup=185 drop=0 speed=1.01x    frame= 1121 fps= 30 q=36.0 size=N/A time=00:00:37.36 bitrate=N/A dup=188 drop=0 speed=1.01x    frame= 1137 fps= 30 q=36.0 size=N/A time=00:00:37.86 bitrate=N/A dup=190 drop=0 speed=1.01x    [hls @ 0x59f5ab0d7080] Opening 'data/hls/stream3/stream3_segment_018.ts' for writing
[hls @ 0x59f5ab0d7080] Opening 'data/hls/stream3/stream3.m3u8.tmp' for writing
frame= 1152 fps= 30 q=35.0 size=N/A time=00:00:38.36 bitrate=N/A dup=193 drop=0 speed=1.01x    frame= 1167 fps= 30 q=38.0 size=N/A time=00:00:38.90 bitrate=N/A dup=196 drop=0 speed=1.01x    frame= 1182 fps= 30 q=36.0 size=N/A time=00:00:39.40 bitrate=N/A dup=198 drop=0 speed=1.01x    frame= 1199 fps= 30 q=33.0 size=N/A time=00:00:39.93 bitrate=N/A dup=201 drop=0 speed=1.01x    [hls @ 0x59f5ab0d7080] Opening 'data/hls/stream3/stream3_segment_019.ts' for writing
[hls @ 0x59f5ab0d7080] Opening 'data/hls/stream3/stream3.m3u8.tmp' for writing
frame= 1213 fps= 30 q=42.0 size=N/A time=00:00:40.43 bitrate=N/A dup=203 drop=0 speed=1.01x    frame= 1229 fps= 30 q=35.0 size=N/A time=00:00:40.96 bitrate=N/A dup=206 drop=0 speed=1.01x    frame= 1246 fps= 30 q=33.0 size=N/A time=00:00:41.50 bitrate=N/A dup=209 drop=0 speed=1.01x    [hls @ 0x59f5ab0d7080] Opening 'data/hls/stream3/stream3_segment_020.ts' for writing
frame= 1260 fps= 30 q=33.0 size=N/A time=00:00:42.00 bitrate=N/A dup=211 drop=0 speed=1.01x    [hls @ 0x59f5ab0d7080] Opening 'data/hls/stream3/stream3.m3u8.tmp' for writing
frame= 1277 fps= 30 q=37.0 size=N/A time=00:00:42.53 bitrate=N/A dup=214 drop=0 speed=1.01x    frame= 1292 fps= 30 q=44.0 size=N/A time=00:00:43.03 bitrate=N/A dup=216 drop=0 speed=1.01x    frame= 1308 fps= 30 q=36.0 size=N/A time=00:00:43.56 bitrate=N/A dup=219 drop=0 speed=1.01x    [hls @ 0x59f5ab0d7080] Opening 'data/hls/stream3/stream3_segment_021.ts' for writing
[hls @ 0x59f5ab0d7080] Opening 'data/hls/stream3/stream3.m3u8.tmp' for writing
frame= 1323 fps= 30 q=42.0 size=N/A time=00:00:44.10 bitrate=N/A dup=222 drop=0 speed=1.01x    frame= 1339 fps= 30 q=35.0 size=N/A time=00:00:44.63 bitrate=N/A dup=225 drop=0 speed=1.01x    frame= 1355 fps= 30 q=38.0 size=N/A time=00:00:45.16 bitrate=N/A dup=227 drop=0 speed=1.01x    frame= 1372 fps= 30 q=40.0 size=N/A time=00:00:45.70 bitrate=N/A dup=230 drop=0 speed=1.01x    [hls @ 0x59f5ab0d7080] Opening 'data/hls/stream3/stream3_segment_022.ts' for writing
[hls @ 0x59f5ab0d7080] Opening 'data/hls/stream3/stream3.m3u8.tmp' for writing
frame= 1388 fps= 30 q=36.0 size=N/A time=00:00:46.23 bitrate=N/A dup=233 drop=0 speed=1.01x    frame= 1402 fps= 30 q=36.0 size=N/A time=00:00:46.73 bitrate=N/A dup=235 drop=0 speed=1.01x    frame= 1419 fps= 30 q=42.0 size=N/A time=00:00:47.26 bitrate=N/A dup=238 drop=0 speed=1.01x    frame= 1436 fps= 30 q=36.0 size=N/A time=00:00:47.83 bitrate=N/A dup=241 drop=0 speed=1.01x    [hls @ 0x59f5ab0d7080] Opening 'data/hls/stream3/stream3_segment_023.ts' for writing
[hls @ 0x59f5ab0d7080] Opening 'data/hls/stream3/stream3.m3u8.tmp' for writing
frame= 1452 fps= 30 q=34.0 size=N/A time=00:00:48.40 bitrate=N/A dup=244 drop=0 speed=1.01x    frame= 1467 fps= 30 q=40.0 size=N/A time=00:00:48.90 bitrate=N/A dup=246 drop=0 speed=1.01x    frame= 1481 fps= 30 q=37.0 size=N/A time=00:00:49.36 bitrate=N/A dup=248 drop=0 speed=1.01x    frame= 1498 fps= 30 q=34.0 size=N/A time=00:00:49.90 bitrate=N/A dup=251 drop=0 speed=1.01x    [hls @ 0x59f5ab0d7080] Opening 'data/hls/stream3/stream3_segment_024.ts' for writing
[hls @ 0x59f5ab0d7080] Opening 'data/hls/stream3/stream3.m3u8.tmp' for writing
frame= 1514 fps= 30 q=34.0 size=N/A time=00:00:50.43 bitrate=N/A dup=254 drop=0 speed=1.01x    frame= 1528 fps= 30 q=38.0 size=N/A time=00:00:50.93 bitrate=N/A dup=256 drop=0 speed=1.01x    frame= 1544 fps= 30 q=34.0 size=N/A time=00:00:51.46 bitrate=N/A dup=259 drop=0 speed=1.01x    frame= 1561 fps= 30 q=33.0 size=N/A time=00:00:52.00 bitrate=N/A dup=262 drop=0 speed=1.01x    [hls @ 0x59f5ab0d7080] Opening 'data/hls/stream3/stream3_segment_025.ts' for writing
[hls @ 0x59f5ab0d7080] Opening 'data/hls/stream3/stream3.m3u8.tmp' for writing
frame= 1576 fps= 30 q=40.0 size=N/A time=00:00:52.50 bitrate=N/A dup=264 drop=0 speed=1.01x    frame= 1591 fps= 30 q=44.0 size=N/A time=00:00:53.03 bitrate=N/A dup=267 drop=0 speed=1.01x    frame= 1608 fps= 30 q=34.0 size=N/A time=00:00:53.56 bitrate=N/A dup=270 drop=0 speed=1.01x    [hls @ 0x59f5ab0d7080] Opening 'data/hls/stream3/stream3_segment_026.ts' for writing
[hls @ 0x59f5ab0d7080] Opening 'data/hls/stream3/stream3.m3u8.tmp' for writing
frame= 1623 fps= 30 q=44.0 size=N/A time=00:00:54.06 bitrate=N/A dup=272 drop=0 speed=1.01x    frame= 1638 fps= 30 q=35.0 size=N/A time=00:00:54.60 bitrate=N/A dup=275 drop=0 speed=1.01x    frame= 1654 fps= 30 q=37.0 size=N/A time=00:00:55.13 bitrate=N/A dup=278 drop=0 speed=1.01x    frame= 1671 fps= 30 q=40.0 size=N/A time=00:00:55.70 bitrate=N/A dup=281 drop=0 speed=1.01x    [hls @ 0x59f5ab0d7080] Opening 'data/hls/stream3/stream3_segment_027.ts' for writing
[hls @ 0x59f5ab0d7080] Opening 'data/hls/stream3/stream3.m3u8.tmp' for writing
frame= 1686 fps= 30 q=36.0 size=N/A time=00:00:56.20 bitrate=N/A dup=283 drop=0 speed=1.01x    frame= 1702 fps= 30 q=34.0 size=N/A time=00:00:56.73 bitrate=N/A dup=286 drop=0 speed=1.01x    frame= 1717 fps= 30 q=35.0 size=N/A time=00:00:57.20 bitrate=N/A dup=288 drop=0 speed=1.01x    frame= 1733 fps= 30 q=38.0 size=N/A time=00:00:57.73 bitrate=N/A dup=291 drop=0 speed=1.01x    [hls @ 0x59f5ab0d7080] Opening 'data/hls/stream3/stream3_segment_028.ts' for writing
[hls @ 0x59f5ab0d7080] Opening 'data/hls/stream3/stream3.m3u8.tmp' for writing
frame= 1748 fps= 30 q=37.0 size=N/A time=00:00:58.23 bitrate=N/A dup=293 drop=0 speed=1.01x    frame= 1764 fps= 30 q=35.0 size=N/A time=00:00:58.76 bitrate=N/A dup=296 drop=0 speed=1.01x    frame= 1779 fps= 30 q=42.0 size=N/A time=00:00:59.30 bitrate=N/A dup=299 drop=0 speed=1.01x    frame= 1796 fps= 30 q=36.0 size=N/A time=00:00:59.86 bitrate=N/A dup=302 drop=0 speed=1.01x    [hls @ 0x59f5ab0d7080] Opening 'data/hls/stream3/stream3_segment_029.ts' for writing
[hls @ 0x59f5ab0d7080] Opening 'data/hls/stream3/stream3.m3u8.tmp' for writing
frame= 1812 fps= 30 q=36.0 size=N/A time=00:01:00.36 bitrate=N/A dup=304 drop=0 speed=1.01x    frame= 1827 fps= 30 q=42.0 size=N/A time=00:01:00.90 bitrate=N/A dup=307 drop=0 speed=1.01x    frame= 1843 fps= 30 q=36.0 size=N/A time=00:01:01.43 bitrate=N/A dup=310 drop=0 speed=1.01x    frame= 1858 fps= 30 q=36.0 size=N/A time=00:01:01.93 bitrate=N/A dup=312 drop=0 speed=1.01x    [hls @ 0x59f5ab0d7080] Opening 'data/hls/stream3/stream3_segment_030.ts' for writing
[hls @ 0x59f5ab0d7080] Opening 'data/hls/stream3/stream3.m3u8.tmp' for writing
frame= 1874 fps= 30 q=35.0 size=N/A time=00:01:02.46 bitrate=N/A dup=315 drop=0 speed=1.01x    frame= 1889 fps= 30 q=39.0 size=N/A time=00:01:02.96 bitrate=N/A dup=317 drop=0 speed=   1x    frame= 1905 fps= 30 q=37.0 size=N/A time=00:01:03.50 bitrate=N/A dup=320 drop=0 speed=1.01x    [hls @ 0x59f5ab0d7080] Opening 'data/hls/stream3/stream3_segment_031.ts' for writing
[hls @ 0x59f5ab0d7080] Opening 'data/hls/stream3/stream3.m3u8.tmp' for writing
frame= 1921 fps= 30 q=43.0 size=N/A time=00:01:04.03 bitrate=N/A dup=323 drop=0 speed=1.01x    frame= 1936 fps= 30 q=40.0 size=N/A time=00:01:04.53 bitrate=N/A dup=325 drop=0 speed=1.01x    frame= 1952 fps= 30 q=41.0 size=N/A time=00:01:05.06 bitrate=N/A dup=328 drop=0 speed=   1x    frame= 1968 fps= 30 q=34.0 size=N/A time=00:01:05.60 bitrate=N/A dup=331 drop=0 speed=1.01x    [hls @ 0x59f5ab0d7080] Opening 'data/hls/stream3/stream3_segment_032.ts' for writing
[hls @ 0x59f5ab0d7080] Opening 'data/hls/stream3/stream3.m3u8.tmp' for writing
frame= 1983 fps= 30 q=43.0 size=N/A time=00:01:06.10 bitrate=N/A dup=333 drop=0 speed=   1x    frame= 1999 fps= 30 q=36.0 size=N/A time=00:01:06.63 bitrate=N/A dup=336 drop=0 speed=1.01x    frame= 2016 fps= 30 q=37.0 size=N/A time=00:01:07.16 bitrate=N/A dup=339 drop=0 speed=1.01x    frame= 2030 fps= 30 q=35.0 size=N/A time=00:01:07.66 bitrate=N/A dup=341 drop=0 speed=   1x    [hls @ 0x59f5ab0d7080] Opening 'data/hls/stream3/stream3_segment_033.ts' for writing
[hls @ 0x59f5ab0d7080] Opening 'data/hls/stream3/stream3.m3u8.tmp' for writing
frame= 2047 fps= 30 q=37.0 size=N/A time=00:01:08.20 bitrate=N/A dup=344 drop=0 speed=1.01x    frame= 2061 fps= 30 q=37.0 size=N/A time=00:01:08.66 bitrate=N/A dup=346 drop=0 speed=   1x    frame= 2076 fps= 30 q=36.0 size=N/A time=00:01:09.20 bitrate=N/A dup=349 drop=0 speed=   1x    frame= 2092 fps= 30 q=42.0 size=N/A time=00:01:09.70 bitrate=N/A dup=351 drop=0 speed=   1x    [hls @ 0x59f5ab0d7080] Opening 'data/hls/stream3/stream3_segment_034.ts' for writing
[hls @ 0x59f5ab0d7080] Opening 'data/hls/stream3/stream3.m3u8.tmp' for writing
frame= 2108 fps= 30 q=38.0 size=N/A time=00:01:10.23 bitrate=N/A dup=354 drop=0 speed=   1x    frame= 2123 fps= 30 q=36.0 size=N/A time=00:01:10.76 bitrate=N/A dup=357 drop=0 speed=   1x    frame= 2139 fps= 30 q=36.0 size=N/A time=00:01:11.26 bitrate=N/A dup=359 drop=0 speed=   1x    frame= 2154 fps= 30 q=38.0 size=N/A time=00:01:11.80 bitrate=N/A dup=362 drop=0 speed=   1x    [hls @ 0x59f5ab0d7080] Opening 'data/hls/stream3/stream3_segment_035.ts' for writing
[hls @ 0x59f5ab0d7080] Opening 'data/hls/stream3/stream3.m3u8.tmp' for writing
frame= 2171 fps= 30 q=36.0 size=N/A time=00:01:12.33 bitrate=N/A dup=365 drop=0 speed=   1x    frame= 2185 fps= 30 q=36.0 size=N/A time=00:01:12.83 bitrate=N/A dup=367 drop=0 speed=   1x    frame= 2201 fps= 30 q=40.0 size=N/A time=00:01:13.36 bitrate=N/A dup=370 drop=0 speed=   1x    frame= 2217 fps= 30 q=36.0 size=N/A time=00:01:13.90 bitrate=N/A dup=373 drop=0 speed=   1x    [hls @ 0x59f5ab0d7080] Opening 'data/hls/stream3/stream3_segment_036.ts' for writing
[hls @ 0x59f5ab0d7080] Opening 'data/hls/stream3/stream3.m3u8.tmp' for writing
frame= 2232 fps= 30 q=35.0 size=N/A time=00:01:14.40 bitrate=N/A dup=375 drop=0 speed=   1x    frame= 2248 fps= 30 q=42.0 size=N/A time=00:01:14.93 bitrate=N/A dup=378 drop=0 speed=   1x    frame= 2265 fps= 30 q=36.0 size=N/A time=00:01:15.46 bitrate=N/A dup=381 drop=0 speed=   1x    frame= 2279 fps= 30 q=36.0 size=N/A time=00:01:15.96 bitrate=N/A dup=383 drop=0 speed=   1x    [hls @ 0x59f5ab0d7080] Opening 'data/hls/stream3/stream3_segment_037.ts' for writing
[hls @ 0x59f5ab0d7080] Opening 'data/hls/stream3/stream3.m3u8.tmp' for writing
frame= 2294 fps= 30 q=36.0 size=N/A time=00:01:16.46 bitrate=N/A dup=385 drop=0 speed=   1x    frame= 2312 fps= 30 q=43.0 size=N/A time=00:01:17.03 bitrate=N/A dup=389 drop=0 speed=   1x    frame= 2326 fps= 30 q=37.0 size=N/A time=00:01:17.53 bitrate=N/A dup=391 drop=0 speed=   1x    [hls @ 0x59f5ab0d7080] Opening 'data/hls/stream3/stream3_segment_038.ts' for writing
[hls @ 0x59f5ab0d7080] Opening 'data/hls/stream3/stream3.m3u8.tmp' for writing
frame= 2343 fps= 30 q=41.0 size=N/A time=00:01:18.06 bitrate=N/A dup=394 drop=0 speed=   1x    frame= 2357 fps= 30 q=41.0 size=N/A time=00:01:18.56 bitrate=N/A dup=396 drop=0 speed=   1x    frame= 2373 fps= 30 q=40.0 size=N/A time=00:01:19.10 bitrate=N/A dup=399 drop=0 speed=   1x    frame= 2390 fps= 30 q=34.0 size=N/A time=00:01:19.63 bitrate=N/A dup=402 drop=0 speed=   1x    [hls @ 0x59f5ab0d7080] Opening 'data/hls/stream3/stream3_segment_039.ts' for writing
[hls @ 0x59f5ab0d7080] Opening 'data/hls/stream3/stream3.m3u8.tmp' for writing
frame= 2403 fps= 30 q=40.0 size=N/A time=00:01:20.10 bitrate=N/A dup=404 drop=0 speed=   1x    frame= 2420 fps= 30 q=38.0 size=N/A time=00:01:20.63 bitrate=N/A dup=407 drop=0 speed=   1x    frame= 2435 fps= 30 q=39.0 size=N/A time=00:01:21.13 bitrate=N/A dup=409 drop=0 speed=   1x    frame= 2450 fps= 30 q=37.0 size=N/A time=00:01:21.66 bitrate=N/A dup=412 drop=0 speed=   1x    [hls @ 0x59f5ab0d7080] Opening 'data/hls/stream3/stream3_segment_040.ts' for writing
[hls @ 0x59f5ab0d7080] Opening 'data/hls/stream3/stream3.m3u8.tmp' for writing
frame= 2466 fps= 30 q=39.0 size=N/A time=00:01:22.20 bitrate=N/A dup=415 drop=0 speed=   1x    frame= 2482 fps= 30 q=36.0 size=N/A time=00:01:22.70 bitrate=N/A dup=417 drop=0 speed=   1x    frame= 2497 fps= 30 q=36.0 size=N/A time=00:01:23.23 bitrate=N/A dup=420 drop=0 speed=   1x    frame= 2512 fps= 30 q=42.0 size=N/A time=00:01:23.73 bitrate=N/A dup=422 drop=0 speed=   1x    [hls @ 0x59f5ab0d7080] Opening 'data/hls/stream3/stream3_segment_041.ts' for writing
[hls @ 0x59f5ab0d7080] Opening 'data/hls/stream3/stream3.m3u8.tmp' for writing
frame= 2528 fps= 30 q=38.0 size=N/A time=00:01:24.26 bitrate=N/A dup=425 drop=0 speed=   1x    frame= 2544 fps= 30 q=36.0 size=N/A time=00:01:24.80 bitrate=N/A dup=428 drop=0 speed=   1x    frame= 2560 fps= 30 q=34.0 size=N/A time=00:01:25.33 bitrate=N/A dup=431 drop=0 speed=   1x    frame= 2575 fps= 30 q=39.0 size=N/A time=00:01:25.83 bitrate=N/A dup=433 drop=0 speed=   1x    [hls @ 0x59f5ab0d7080] Opening 'data/hls/stream3/stream3_segment_042.ts' for writing
[hls @ 0x59f5ab0d7080] Opening 'data/hls/stream3/stream3.m3u8.tmp' for writing
frame= 2591 fps= 30 q=36.0 size=N/A time=00:01:26.36 bitrate=N/A dup=436 drop=0 speed=   1x    frame= 2607 fps= 30 q=34.0 size=N/A time=00:01:26.90 bitrate=N/A dup=439 drop=0 speed=   1x    frame= 2623 fps= 30 q=40.0 size=N/A time=00:01:27.40 bitrate=N/A dup=441 drop=0 speed=   1x    frame= 2638 fps= 30 q=36.0 size=N/A time=00:01:27.93 bitrate=N/A dup=444 drop=0 speed=   1x    [hls @ 0x59f5ab0d7080] Opening 'data/hls/stream3/stream3_segment_043.ts' for writing
[hls @ 0x59f5ab0d7080] Opening 'data/hls/stream3/stream3.m3u8.tmp' for writing
frame= 2653 fps= 30 q=36.0 size=N/A time=00:01:28.43 bitrate=N/A dup=446 drop=0 speed=   1x    frame= 2669 fps= 30 q=42.0 size=N/A time=00:01:28.96 bitrate=N/A dup=449 drop=0 speed=   1x    frame= 2686 fps= 30 q=35.0 size=N/A time=00:01:29.50 bitrate=N/A dup=452 drop=0 speed=   1x    [hls @ 0x59f5ab0d7080] Opening 'data/hls/stream3/stream3_segment_044.ts' for writing
[hls @ 0x59f5ab0d7080] Opening 'data/hls/stream3/stream3.m3u8.tmp' for writing
frame= 2702 fps= 30 q=43.0 size=N/A time=00:01:30.03 bitrate=N/A dup=455 drop=0 speed=   1x    frame= 2717 fps= 30 q=34.0 size=N/A time=00:01:30.53 bitrate=N/A dup=457 drop=0 speed=   1x    frame= 2731 fps= 30 q=44.0 size=N/A time=00:01:31.03 bitrate=N/A dup=459 drop=0 speed=   1x    frame= 2748 fps= 30 q=39.0 size=N/A time=00:01:31.56 bitrate=N/A dup=462 drop=0 speed=   1x    [hls @ 0x59f5ab0d7080] Opening 'data/hls/stream3/stream3_segment_045.ts' for writing
[hls @ 0x59f5ab0d7080] Opening 'data/hls/stream3/stream3.m3u8.tmp' for writing
frame= 2764 fps= 30 q=39.0 size=N/A time=00:01:32.10 bitrate=N/A dup=465 drop=0 speed=   1x    frame= 2780 fps= 30 q=38.0 size=N/A time=00:01:32.63 bitrate=N/A dup=468 drop=0 speed=   1x    frame= 2794 fps= 30 q=38.0 size=N/A time=00:01:33.13 bitrate=N/A dup=470 drop=0 speed=   1x    frame= 2810 fps= 30 q=35.0 size=N/A time=00:01:33.66 bitrate=N/A dup=473 drop=0 speed=   1x    [hls @ 0x59f5ab0d7080] Opening 'data/hls/stream3/stream3_segment_046.ts' for writing
[hls @ 0x59f5ab0d7080] Opening 'data/hls/stream3/stream3.m3u8.tmp' for writing
frame= 2826 fps= 30 q=42.0 size=N/A time=00:01:34.16 bitrate=N/A dup=475 drop=0 speed=   1x    frame= 2841 fps= 30 q=36.0 size=N/A time=00:01:34.70 bitrate=N/A dup=478 drop=0 speed=   1x    frame= 2858 fps= 30 q=34.0 size=N/A time=00:01:35.23 bitrate=N/A dup=481 drop=0 speed=   1x    frame= 2873 fps= 30 q=35.0 size=N/A time=00:01:35.73 bitrate=N/A dup=483 drop=0 speed=   1x    [hls @ 0x59f5ab0d7080] Opening 'data/hls/stream3/stream3_segment_047.ts' for writing
[hls @ 0x59f5ab0d7080] Opening 'data/hls/stream3/stream3.m3u8.tmp' for writing
frame= 2890 fps= 30 q=36.0 size=N/A time=00:01:36.33 bitrate=N/A dup=487 drop=0 speed=   1x    frame= 2905 fps= 30 q=36.0 size=N/A time=00:01:36.83 bitrate=N/A dup=489 drop=0 speed=   1x    frame= 2922 fps= 30 q=35.0 size=N/A time=00:01:37.36 bitrate=N/A dup=492 drop=0 speed=   1x    frame= 2936 fps= 30 q=38.0 size=N/A time=00:01:37.86 bitrate=N/A dup=494 drop=0 speed=   1x    [hls @ 0x59f5ab0d7080] Opening 'data/hls/stream3/stream3_segment_048.ts' for writing
[hls @ 0x59f5ab0d7080] Opening 'data/hls/stream3/stream3.m3u8.tmp' for writing
frame= 2953 fps= 30 q=39.0 size=N/A time=00:01:38.40 bitrate=N/A dup=497 drop=0 speed=   1x    frame= 2969 fps= 30 q=33.0 size=N/A time=00:01:38.93 bitrate=N/A dup=500 drop=0 speed=   1x    frame= 2984 fps= 30 q=39.0 size=N/A time=00:01:39.43 bitrate=N/A dup=502 drop=0 speed=   1x    frame= 2999 fps= 30 q=35.0 size=N/A time=00:01:39.96 bitrate=N/A dup=505 drop=0 speed=   1x    [hls @ 0x59f5ab0d7080] Opening 'data/hls/stream3/stream3_segment_049.ts' for writing
[hls @ 0x59f5ab0d7080] Opening 'data/hls/stream3/stream3.m3u8.tmp' for writing
frame= 3016 fps= 30 q=32.0 size=N/A time=00:01:40.50 bitrate=N/A dup=508 drop=0 speed=   1x    frame= 3030 fps= 30 q=33.0 size=N/A time=00:01:41.00 bitrate=N/A dup=510 drop=0 speed=   1x    frame= 3045 fps= 30 q=36.0 size=N/A time=00:01:41.50 bitrate=N/A dup=512 drop=0 speed=   1x    [hls @ 0x59f5ab0d7080] Opening 'data/hls/stream3/stream3_segment_050.ts' for writing
[hls @ 0x59f5ab0d7080] Opening 'data/hls/stream3/stream3.m3u8.tmp' for writing
frame= 3062 fps= 30 q=43.0 size=N/A time=00:01:42.03 bitrate=N/A dup=515 drop=0 speed=   1x    frame= 3077 fps= 30 q=33.0 size=N/A time=00:01:42.56 bitrate=N/A dup=518 drop=0 speed=   1x    frame= 3092 fps= 30 q=41.0 size=N/A time=00:01:43.06 bitrate=N/A dup=520 drop=0 speed=   1x    frame= 3108 fps= 30 q=35.0 size=N/A time=00:01:43.60 bitrate=N/A dup=523 drop=0 speed=   1x    [hls @ 0x59f5ab0d7080] Opening 'data/hls/stream3/stream3_segment_051.ts' for writing
[hls @ 0x59f5ab0d7080] Opening 'data/hls/stream3/stream3.m3u8.tmp' for writing
frame= 3125 fps= 30 q=38.0 size=N/A time=00:01:44.13 bitrate=N/A dup=526 drop=0 speed=   1x    frame= 3139 fps= 30 q=40.0 size=N/A time=00:01:44.63 bitrate=N/A dup=528 drop=0 speed=   1x    frame= 3155 fps= 30 q=37.0 size=N/A time=00:01:45.16 bitrate=N/A dup=531 drop=0 speed=   1x    frame= 3171 fps= 30 q=35.0 size=N/A time=00:01:45.70 bitrate=N/A dup=534 drop=0 speed=   1x    [hls @ 0x59f5ab0d7080] Opening 'data/hls/stream3/stream3_segment_052.ts' for writing
[hls @ 0x59f5ab0d7080] Opening 'data/hls/stream3/stream3.m3u8.tmp' for writing
frame= 3186 fps= 30 q=42.0 size=N/A time=00:01:46.20 bitrate=N/A dup=536 drop=0 speed=   1x    frame= 3202 fps= 30 q=35.0 size=N/A time=00:01:46.73 bitrate=N/A dup=539 drop=0 speed=   1x    frame= 3217 fps= 30 q=36.0 size=N/A time=00:01:47.20 bitrate=N/A dup=541 drop=0 speed=   1x    frame= 3232 fps= 30 q=36.0 size=N/A time=00:01:47.73 bitrate=N/A dup=544 drop=0 speed=   1x    [hls @ 0x59f5ab0d7080] Opening 'data/hls/stream3/stream3_segment_053.ts' for writing
[hls @ 0x59f5ab0d7080] Opening 'data/hls/stream3/stream3.m3u8.tmp' for writing
frame= 3248 fps= 30 q=40.0 size=N/A time=00:01:48.26 bitrate=N/A dup=547 drop=0 speed=   1x    frame= 3263 fps= 30 q=37.0 size=N/A time=00:01:48.76 bitrate=N/A dup=549 drop=0 speed=   1x    frame= 3279 fps= 30 q=34.0 size=N/A time=00:01:49.30 bitrate=N/A dup=552 drop=0 speed=   1x    frame= 3295 fps= 30 q=42.0 size=N/A time=00:01:49.83 bitrate=N/A dup=555 drop=0 speed=   1x    [hls @ 0x59f5ab0d7080] Opening 'data/hls/stream3/stream3_segment_054.ts' for writing
[hls @ 0x59f5ab0d7080] Opening 'data/hls/stream3/stream3.m3u8.tmp' for writing
frame= 3311 fps= 30 q=36.0 size=N/A time=00:01:50.33 bitrate=N/A dup=557 drop=0 speed=   1x    frame= 3326 fps= 30 q=36.0 size=N/A time=00:01:50.86 bitrate=N/A dup=560 drop=0 speed=   1x    frame= 3342 fps= 30 q=36.0 size=N/A time=00:01:51.40 bitrate=N/A dup=563 drop=0 speed=   1x    frame= 3359 fps= 30 q=36.0 size=N/A time=00:01:51.93 bitrate=N/A dup=566 drop=0 speed=   1x    [hls @ 0x59f5ab0d7080] Opening 'data/hls/stream3/stream3_segment_055.ts' for writing
[hls @ 0x59f5ab0d7080] Opening 'data/hls/stream3/stream3.m3u8.tmp' for writing
frame= 3373 fps= 30 q=36.0 size=N/A time=00:01:52.43 bitrate=N/A dup=568 drop=0 speed=   1x    frame= 3389 fps= 30 q=35.0 size=N/A time=00:01:52.96 bitrate=N/A dup=571 drop=0 speed=   1x    frame= 3404 fps= 30 q=40.0 size=N/A time=00:01:53.46 bitrate=N/A dup=573 drop=0 speed=   1x    frame= 3421 fps= 30 q=34.0 size=N/A time=00:01:54.00 bitrate=N/A dup=576 drop=0 speed=   1x    [hls @ 0x59f5ab0d7080] Opening 'data/hls/stream3/stream3_segment_056.ts' for writing
[hls @ 0x59f5ab0d7080] Opening 'data/hls/stream3/stream3.m3u8.tmp' for writing
frame= 3435 fps= 30 q=35.0 size=N/A time=00:01:54.50 bitrate=N/A dup=578 drop=0 speed=   1x    frame= 3450 fps= 30 q=35.0 size=N/A time=00:01:54.96 bitrate=N/A dup=580 drop=0 speed=   1x    frame= 3467 fps= 30 q=36.0 size=N/A time=00:01:55.53 bitrate=N/A dup=584 drop=0 speed=   1x    [hls @ 0x59f5ab0d7080] Opening 'data/hls/stream3/stream3_segment_057.ts' for writing
[hls @ 0x59f5ab0d7080] Opening 'data/hls/stream3/stream3.m3u8.tmp' for writing
frame= 3481 fps= 30 q=44.0 size=N/A time=00:01:56.03 bitrate=N/A dup=586 drop=0 speed=   1x    frame= 3497 fps= 30 q=35.0 size=N/A time=00:01:56.56 bitrate=N/A dup=589 drop=0 speed=   1x    frame= 3515 fps= 30 q=39.0 size=N/A time=00:01:57.13 bitrate=N/A dup=592 drop=0 speed=   1x    frame= 3529 fps= 30 q=36.0 size=N/A time=00:01:57.63 bitrate=N/A dup=594 drop=0 speed=   1x    [hls @ 0x59f5ab0d7080] Opening 'data/hls/stream3/stream3_segment_058.ts' for writing
[hls @ 0x59f5ab0d7080] Opening 'data/hls/stream3/stream3.m3u8.tmp' for writing
frame= 3546 fps= 30 q=37.0 size=N/A time=00:01:58.16 bitrate=N/A dup=597 drop=0 speed=   1x    frame= 3562 fps= 30 q=38.0 size=N/A time=00:01:58.70 bitrate=N/A dup=600 drop=0 speed=   1x    frame= 3577 fps= 30 q=37.0 size=N/A time=00:01:59.20 bitrate=N/A dup=602 drop=0 speed=   1x    frame= 3592 fps= 30 q=35.0 size=N/A time=00:01:59.73 bitrate=N/A dup=605 drop=0 speed=   1x    [hls @ 0x59f5ab0d7080] Opening 'data/hls/stream3/stream3_segment_059.ts' for writing
[hls @ 0x59f5ab0d7080] Opening 'data/hls/stream3/stream3.m3u8.tmp' for writing
frame= 3609 fps= 30 q=42.0 size=N/A time=00:02:00.26 bitrate=N/A dup=608 drop=0 speed=   1x    frame= 3624 fps= 30 q=37.0 size=N/A time=00:02:00.76 bitrate=N/A dup=610 drop=0 speed=   1x    frame= 3640 fps= 30 q=36.0 size=N/A time=00:02:01.30 bitrate=N/A dup=613 drop=0 speed=   1x    frame= 3657 fps= 30 q=42.0 size=N/A time=00:02:01.86 bitrate=N/A dup=616 drop=0 speed=   1x    [hls @ 0x59f5ab0d7080] Opening 'data/hls/stream3/stream3_segment_060.ts' for writing
[hls @ 0x59f5ab0d7080] Opening 'data/hls/stream3/stream3.m3u8.tmp' for writing
frame= 3672 fps= 30 q=36.0 size=N/A time=00:02:02.36 bitrate=N/A dup=618 drop=0 speed=   1x    frame= 3687 fps= 30 q=34.0 size=N/A time=00:02:02.90 bitrate=N/A dup=621 drop=0 speed=   1x    frame= 3703 fps= 30 q=33.0 size=N/A time=00:02:03.43 bitrate=N/A dup=624 drop=0 speed=   1x    frame= 3719 fps= 30 q=38.0 size=N/A time=00:02:03.93 bitrate=N/A dup=626 drop=0 speed=   1x    [hls @ 0x59f5ab0d7080] Opening 'data/hls/stream3/stream3_segment_061.ts' for writing
[hls @ 0x59f5ab0d7080] Opening 'data/hls/stream3/stream3.m3u8.tmp' for writing
frame= 3734 fps= 30 q=35.0 size=N/A time=00:02:04.46 bitrate=N/A dup=629 drop=0 speed=   1x    frame= 3750 fps= 30 q=39.0 size=N/A time=00:02:04.96 bitrate=N/A dup=631 drop=0 speed=   1x    frame= 3766 fps= 30 q=40.0 size=N/A time=00:02:05.50 bitrate=N/A dup=634 drop=0 speed=   1x    [hls @ 0x59f5ab0d7080] Opening 'data/hls/stream3/stream3_segment_062.ts' for writing
[hls @ 0x59f5ab0d7080] Opening 'data/hls/stream3/stream3.m3u8.tmp' for writing
frame= 3782 fps= 30 q=44.0 size=N/A time=00:02:06.03 bitrate=N/A dup=637 drop=0 speed=   1x    frame= 3796 fps= 30 q=34.0 size=N/A time=00:02:06.50 bitrate=N/A dup=639 drop=0 speed=   1x    frame= 3811 fps= 30 q=43.0 size=N/A time=00:02:07.03 bitrate=N/A dup=642 drop=0 speed=   1x    frame= 3828 fps= 30 q=38.0 size=N/A time=00:02:07.56 bitrate=N/A dup=645 drop=0 speed=   1x    [hls @ 0x59f5ab0d7080] Opening 'data/hls/stream3/stream3_segment_063.ts' for writing
[hls @ 0x59f5ab0d7080] Opening 'data/hls/stream3/stream3.m3u8.tmp' for writing
frame= 3845 fps= 30 q=38.0 size=N/A time=00:02:08.13 bitrate=N/A dup=648 drop=0 speed=   1x    frame= 3860 fps= 30 q=36.0 size=N/A time=00:02:08.63 bitrate=N/A dup=650 drop=0 speed=   1x    frame= 3874 fps= 30 q=40.0 size=N/A time=00:02:09.13 bitrate=N/A dup=652 drop=0 speed=   1x    frame= 3891 fps= 30 q=37.0 size=N/A time=00:02:09.66 bitrate=N/A dup=655 drop=0 speed=   1x    [hls @ 0x59f5ab0d7080] Opening 'data/hls/stream3/stream3_segment_064.ts' for writing
[hls @ 0x59f5ab0d7080] Opening 'data/hls/stream3/stream3.m3u8.tmp' for writing
frame= 3907 fps= 30 q=37.0 size=N/A time=00:02:10.20 bitrate=N/A dup=658 drop=0 speed=   1x    frame= 3922 fps= 30 q=38.0 size=N/A time=00:02:10.73 bitrate=N/A dup=661 drop=0 speed=   1x    frame= 3938 fps= 30 q=38.0 size=N/A time=00:02:11.23 bitrate=N/A dup=663 drop=0 speed=   1x    frame= 3954 fps= 30 q=35.0 size=N/A time=00:02:11.76 bitrate=N/A dup=666 drop=0 speed=   1x    [hls @ 0x59f5ab0d7080] Opening 'data/hls/stream3/stream3_segment_065.ts' for writing
[hls @ 0x59f5ab0d7080] Opening 'data/hls/stream3/stream3.m3u8.tmp' for writing
frame= 3969 fps= 30 q=42.0 size=N/A time=00:02:12.26 bitrate=N/A dup=668 drop=0 speed=   1x    frame= 3984 fps= 30 q=36.0 size=N/A time=00:02:12.80 bitrate=N/A dup=671 drop=0 speed=   1x    frame= 4000 fps= 30 q=34.0 size=N/A time=00:02:13.33 bitrate=N/A dup=674 drop=0 speed=   1x    frame= 4016 fps= 30 q=37.0 size=N/A time=00:02:13.83 bitrate=N/A dup=676 drop=0 speed=   1x    [hls @ 0x59f5ab0d7080] Opening 'data/hls/stream3/stream3_segment_066.ts' for writing
[hls @ 0x59f5ab0d7080] Opening 'data/hls/stream3/stream3.m3u8.tmp' for writing
frame= 4032 fps= 30 q=39.0 size=N/A time=00:02:14.36 bitrate=N/A dup=679 drop=0 speed=   1x    frame= 4048 fps= 30 q=34.0 size=N/A time=00:02:14.90 bitrate=N/A dup=682 drop=0 speed=   1x    frame= 4063 fps= 30 q=36.0 size=N/A time=00:02:15.40 bitrate=N/A dup=684 drop=0 speed=   1x    frame= 4078 fps= 30 q=41.0 size=N/A time=00:02:15.93 bitrate=N/A dup=687 drop=0 speed=   1x    [hls @ 0x59f5ab0d7080] Opening 'data/hls/stream3/stream3_segment_067.ts' for writing
[hls @ 0x59f5ab0d7080] Opening 'data/hls/stream3/stream3.m3u8.tmp' for writing
frame= 4094 fps= 30 q=37.0 size=N/A time=00:02:16.46 bitrate=N/A dup=690 drop=0 speed=   1x    frame= 4110 fps= 30 q=36.0 size=N/A time=00:02:16.96 bitrate=N/A dup=692 drop=0 speed=   1x    frame= 4126 fps= 30 q=40.0 size=N/A time=00:02:17.50 bitrate=N/A dup=695 drop=0 speed=   1x    frame= 4140 fps= 30 q=35.0 size=N/A time=00:02:18.00 bitrate=N/A dup=697 drop=0 speed=   1x    [hls @ 0x59f5ab0d7080] Opening 'data/hls/stream3/stream3_segment_068.ts' for writing
[hls @ 0x59f5ab0d7080] Opening 'data/hls/stream3/stream3.m3u8.tmp' for writing
frame= 4156 fps= 30 q=36.0 size=N/A time=00:02:18.53 bitrate=N/A dup=700 drop=0 speed=   1x    frame= 4173 fps= 30 q=41.0 size=N/A time=00:02:19.06 bitrate=N/A dup=703 drop=0 speed=   1x    frame= 4187 fps= 30 q=39.0 size=N/A time=00:02:19.56 bitrate=N/A dup=705 drop=0 speed=   1x    [hls @ 0x59f5ab0d7080] Opening 'data/hls/stream3/stream3_segment_069.ts' for writing
[hls @ 0x59f5ab0d7080] Opening 'data/hls/stream3/stream3.m3u8.tmp' for writing
frame= 4203 fps= 30 q=43.0 size=N/A time=00:02:20.10 bitrate=N/A dup=708 drop=0 speed=   1x    frame= 4220 fps= 30 q=36.0 size=N/A time=00:02:20.63 bitrate=N/A dup=711 drop=0 speed=   1x    frame= 4235 fps= 30 q=42.0 size=N/A time=00:02:21.13 bitrate=N/A dup=713 drop=0 speed=   1x    frame= 4250 fps= 30 q=37.0 size=N/A time=00:02:21.66 bitrate=N/A dup=716 drop=0 speed=   1x    [hls @ 0x59f5ab0d7080] Opening 'data/hls/stream3/stream3_segment_070.ts' for writing
[hls @ 0x59f5ab0d7080] Opening 'data/hls/stream3/stream3.m3u8.tmp' for writing
frame= 4266 fps= 30 q=37.0 size=N/A time=00:02:22.20 bitrate=N/A dup=719 drop=0 speed=   1x    frame= 4283 fps= 30 q=40.0 size=N/A time=00:02:22.73 bitrate=N/A dup=722 drop=0 speed=   1x    frame= 4297 fps= 30 q=37.0 size=N/A time=00:02:23.23 bitrate=N/A dup=724 drop=0 speed=   1x    frame= 4312 fps= 30 q=35.0 size=N/A time=00:02:23.73 bitrate=N/A dup=726 drop=0 speed=   1x    [hls @ 0x59f5ab0d7080] Opening 'data/hls/stream3/stream3_segment_071.ts' for writing
[hls @ 0x59f5ab0d7080] Opening 'data/hls/stream3/stream3.m3u8.tmp' for writing
frame= 4328 fps= 30 q=34.0 size=N/A time=00:02:24.26 bitrate=N/A dup=729 drop=0 speed=   1x    frame= 4345 fps= 30 q=37.0 size=N/A time=00:02:24.80 bitrate=N/A dup=732 drop=0 speed=   1x    frame= 4359 fps= 30 q=38.0 size=N/A time=00:02:25.30 bitrate=N/A dup=734 drop=0 speed=   1x    frame= 4375 fps= 30 q=38.0 size=N/A time=00:02:25.83 bitrate=N/A dup=737 drop=0 speed=   1x    [hls @ 0x59f5ab0d7080] Opening 'data/hls/stream3/stream3_segment_072.ts' for writing
[hls @ 0x59f5ab0d7080] Opening 'data/hls/stream3/stream3.m3u8.tmp' for writing
frame= 4391 fps= 30 q=41.0 size=N/A time=00:02:26.36 bitrate=N/A dup=740 drop=0 speed=   1x    frame= 4406 fps= 30 q=37.0 size=N/A time=00:02:26.86 bitrate=N/A dup=742 drop=0 speed=   1x    frame= 4422 fps= 30 q=35.0 size=N/A time=00:02:27.40 bitrate=N/A dup=745 drop=0 speed=   1x    frame= 4438 fps= 30 q=41.0 size=N/A time=00:02:27.93 bitrate=N/A dup=748 drop=0 speed=   1x    [hls @ 0x59f5ab0d7080] Opening 'data/hls/stream3/stream3_segment_073.ts' for writing
[hls @ 0x59f5ab0d7080] Opening 'data/hls/stream3/stream3.m3u8.tmp' for writing
frame= 4453 fps= 30 q=37.0 size=N/A time=00:02:28.43 bitrate=N/A dup=750 drop=0 speed=   1x    frame= 4469 fps= 30 q=36.0 size=N/A time=00:02:28.96 bitrate=N/A dup=753 drop=0 speed=   1x    frame= 4484 fps= 30 q=35.0 size=N/A time=00:02:29.46 bitrate=N/A dup=755 drop=0 speed=   1x    [hls @ 0x59f5ab0d7080] Opening 'data/hls/stream3/stream3_segment_074.ts' for writing
[hls @ 0x59f5ab0d7080] Opening 'data/hls/stream3/stream3.m3u8.tmp' for writing
frame= 4502 fps= 30 q=44.0 size=N/A time=00:02:30.03 bitrate=N/A dup=759 drop=0 speed=   1x    frame= 4516 fps= 30 q=34.0 size=N/A time=00:02:30.53 bitrate=N/A dup=761 drop=0 speed=   1x    frame= 4532 fps= 30 q=42.0 size=N/A time=00:02:31.03 bitrate=N/A dup=763 drop=0 speed=   1x    frame= 4550 fps= 30 q=36.0 size=N/A time=00:02:31.63 bitrate=N/A dup=767 drop=0 speed=   1x    [hls @ 0x59f5ab0d7080] Opening 'data/hls/stream3/stream3_segment_075.ts' for writing
[hls @ 0x59f5ab0d7080] Opening 'data/hls/stream3/stream3.m3u8.tmp' for writing
frame= 4565 fps= 30 q=38.0 size=N/A time=00:02:32.13 bitrate=N/A dup=769 drop=0 speed=   1x    frame= 4580 fps= 30 q=36.0 size=N/A time=00:02:32.63 bitrate=N/A dup=771 drop=0 speed=   1x    frame= 4595 fps= 30 q=41.0 size=N/A time=00:02:33.16 bitrate=N/A dup=774 drop=0 speed=   1x    frame= 4611 fps= 30 q=36.0 size=N/A time=00:02:33.70 bitrate=N/A dup=777 drop=0 speed=   1x    [hls @ 0x59f5ab0d7080] Opening 'data/hls/stream3/stream3_segment_076.ts' for writing
[hls @ 0x59f5ab0d7080] Opening 'data/hls/stream3/stream3.m3u8.tmp' for writing
frame= 4628 fps= 30 q=34.0 size=N/A time=00:02:34.23 bitrate=N/A dup=780 drop=0 speed=   1x    frame= 4642 fps= 30 q=42.0 size=N/A time=00:02:34.73 bitrate=N/A dup=782 drop=0 speed=   1x    frame= 4659 fps= 30 q=37.0 size=N/A time=00:02:35.26 bitrate=N/A dup=785 drop=0 speed=   1x    